<?xml version="1.0" encoding="UTF-8" standalone="no"?>
<svg
   xmlns:dc="http://purl.org/dc/elements/1.1/"
   xmlns:cc="http://creativecommons.org/ns#"
   xmlns:rdf="http://www.w3.org/1999/02/22-rdf-syntax-ns#"
   xmlns:svg="http://www.w3.org/2000/svg"
   xmlns="http://www.w3.org/2000/svg"
   xmlns:sodipodi="http://sodipodi.sourceforge.net/DTD/sodipodi-0.dtd"
   xmlns:inkscape="http://www.inkscape.org/namespaces/inkscape"
   width="600pt"
   height="600pt"
   viewBox="0 0 600 600"
   version="1.1"
   id="svg2"
   inkscape:version="0.91 r13725"
   sodipodi:docname="stormtrooper-helmet-star-wars-the-force-awakens-00.svg">
  <metadata
     id="metadata156">
    <rdf:RDF>
      <cc:Work
         rdf:about="">
        <dc:format>image/svg+xml</dc:format>
        <dc:type
           rdf:resource="http://purl.org/dc/dcmitype/StillImage" />
      </cc:Work>
    </rdf:RDF>
  </metadata>
  <defs
     id="defs154" />
  <sodipodi:namedview
     pagecolor="#ffffff"
     bordercolor="#666666"
     borderopacity="1"
     objecttolerance="10"
     gridtolerance="10"
     guidetolerance="10"
     inkscape:pageopacity="0"
     inkscape:pageshadow="2"
     inkscape:window-width="1286"
     inkscape:window-height="761"
     id="namedview152"
     showgrid="false"
     inkscape:zoom="0.89001173"
     inkscape:cx="140.6523"
     inkscape:cy="276.11368"
     inkscape:window-x="0"
     inkscape:window-y="0"
     inkscape:window-maximized="0"
     inkscape:current-layer="svg2" />
  <path
     inkscape:connector-curvature="0"
     style="fill:#fdfdfd;stroke:#000000;stroke-width:0.08;stroke-linecap:butt;stroke-linejoin:miter;stroke-miterlimit:4;stroke-dasharray:none;stroke-opacity:1"
     d="m 235.08839,150.07253 c 29.17,-9.96 61.69,-9.13 90.58,1.44 5.04,1.41 9.67,4.5 15.04,4.52 3.33,0.04 6.37,1.63 9.18,3.27 3.04,1.64 3.94,5.34 6.61,7.4 18.19,13.73 33.28,32.02 41.69,53.31 0.66,2.54 3.22,3.54 4.98,5.18 1.99,4.63 2.5,9.93 0.88,14.76 -0.97,9.84 2.09,20.15 -1.05,29.77 l -1.3,-0.56 c -0.67,-0.29 -2.02,-0.87 -2.69,-1.16 -6.31,-2.7 -13.01,-4.38 -19.8,-5.28 -8.32,-1.85 -16.77,-2.99 -25.21,-4.1 3.03,-0.66 6.16,-1.21 8.98,-2.59 1.43,-1.42 2.07,-3.41 2.94,-5.18 2.28,-0.84 4.58,-1.64 6.88,-2.44 -2.59,-1.97 -5.74,-3.51 -7.47,-6.37 -3.44,-8.32 -4.99,-17.25 -6.03,-26.15 -0.15,-3.37 -3.53,-4.68 -5.98,-6.18 -5.02,-2.76 -9.02,-6.94 -13.77,-10.1 -6.66,-4.44 -12.64,-10.26 -20.47,-12.61 -5.19,-1.55 -10.45,-2.78 -15.64,-4.32 -6.15,-1.78 -12.6,-1.24 -18.91,-1.21 -11.42,0.24 -23.23,-1.28 -34.19,2.83 -7.48,1.99 -13.02,7.61 -18.96,12.21 -3.83,2.93 -6.66,6.89 -9.13,10.98 -2.05,3.46 -4.93,6.84 -4.91,11.09 -0.22,6.23 0.37,12.6 -1.35,18.69 -0.76,2.91 -2.95,5.08 -4.84,7.31 1.23,3.29 2.08,6.76 3.84,9.84 4.89,1.5 10.1,1.42 15.11,2.4 -2.28,0.17 -4.55,0.44 -6.82,0.61 -8.1,0.17 -16.14,1.21 -24.2,1.89 -12.72,1.23 -25.53,2.95 -37.71,6.97 -1.51,0.57 -2.98,1.2 -4.46,1.82 -1.59,0.67 -3.21,1.24 -4.84,1.78 -0.57,-8.53 -0.6,-17.12 0.81,-25.57 0.63,-3.24 -0.91,-6.32 -0.89,-9.52 0.28,-2.96 0.98,-5.89 2.05,-8.66 1.23,-2.28 3.86,-3.51 4.84,-5.98 7.59,-19.6 20.75,-36.92 37.09,-50.08 2.38,-1.93 4.72,-4.09 7.67,-5.11 6.3,-1.76 12.21,-4.74 17.13,-9.07 4.27,-2.98 9.49,-4.08 14.32,-5.83 z"
     id="path8"
     inkscape:export-xdpi="90"
     inkscape:export-ydpi="90" />
  <path
     inkscape:connector-curvature="0"
     style="fill:#dadada;stroke:#000000;stroke-width:0.08;stroke-linecap:butt;stroke-linejoin:miter;stroke-miterlimit:4;stroke-dasharray:none;stroke-opacity:1"
     d="m 205.92839,160.18253 c 4.47,-2.51 9.47,-6.54 14.84,-4.28 -4.92,4.33 -10.83,7.31 -17.13,9.07 0.36,-1.75 0.42,-3.91 2.29,-4.79 z"
     id="path10"
     inkscape:export-xdpi="90"
     inkscape:export-ydpi="90" />
  <path
     inkscape:connector-curvature="0"
     style="fill:#dadada;stroke:#000000;stroke-width:0.08;stroke-linecap:butt;stroke-linejoin:miter;stroke-miterlimit:4;stroke-dasharray:none;stroke-opacity:1"
     d="m 250.33839,184.30253 c 10.96,-4.11 22.77,-2.59 34.19,-2.83 6.31,-0.03 12.76,-0.57 18.91,1.21 5.19,1.54 10.45,2.77 15.64,4.32 7.83,2.35 13.81,8.17 20.47,12.61 4.75,3.16 8.75,7.34 13.77,10.1 2.45,1.5 5.83,2.81 5.98,6.18 1.04,8.9 2.59,17.83 6.03,26.15 1.73,2.86 4.88,4.4 7.47,6.37 -2.3,0.8 -4.6,1.6 -6.88,2.44 -0.87,1.77 -1.51,3.76 -2.94,5.18 -2.82,1.38 -5.95,1.93 -8.98,2.59 -6.13,-0.21 -12.23,-0.81 -18.34,-1.23 -9.51,-0.68 -19.04,-0.85 -28.53,-1.7 4.97,-1.65 10.23,-1.56 15.4,-1.31 -1.02,-2.15 -1.8,-4.5 -3.44,-6.27 -2.18,-1.64 -4.93,-2.19 -7.45,-3.09 1.76,-0.4 3.52,-0.81 5.28,-1.21 -3.68,-4.47 -6.61,-9.74 -11.74,-12.76 -4.66,-2.9 -9.31,-7.45 -15.22,-6.67 -7.5,1.03 -14.9,3.4 -21.3,7.49 -3.11,1.88 -4.55,5.4 -7.14,7.81 -1.83,1.5 -4.01,2.48 -6.09,3.56 5.13,-0.01 10.27,0.18 15.37,0.86 -4.05,0.71 -8.21,0.71 -12.19,1.74 -2.49,0.7 -3.03,3.58 -4.15,5.55 3.5,1.31 6.92,2.8 10.39,4.21 -11.59,0.37 -23.17,0.74 -34.75,1.22 -5.01,-0.98 -10.22,-0.9 -15.11,-2.4 -1.76,-3.08 -2.61,-6.55 -3.84,-9.84 1.89,-2.23 4.08,-4.4 4.84,-7.31 1.72,-6.09 1.13,-12.46 1.35,-18.69 -0.02,-4.25 2.86,-7.63 4.91,-11.09 2.47,-4.09 5.3,-8.05 9.13,-10.98 5.94,-4.6 11.48,-10.22 18.96,-12.21 z"
     id="path12"
     inkscape:export-xdpi="90"
     inkscape:export-ydpi="90" />
  <path
     inkscape:connector-curvature="0"
     style="fill:#acacab;stroke:#000000;stroke-width:0.08;stroke-linecap:butt;stroke-linejoin:miter;stroke-miterlimit:4;stroke-dasharray:none;stroke-opacity:1"
     d="m 289.95839,224.38253 c 5.91,-0.78 10.56,3.77 15.22,6.67 5.13,3.02 8.06,8.29 11.74,12.76 -1.76,0.4 -3.52,0.81 -5.28,1.21 2.52,0.9 5.27,1.45 7.45,3.09 1.64,1.77 2.42,4.12 3.44,6.27 -5.17,-0.25 -10.43,-0.34 -15.4,1.31 -14.09,0.56 -28.19,-0.17 -42.28,-0.09 -3.47,-1.41 -6.89,-2.9 -10.39,-4.21 1.12,-1.97 1.66,-4.85 4.15,-5.55 3.98,-1.03 8.14,-1.03 12.19,-1.74 -5.1,-0.68 -10.24,-0.87 -15.37,-0.86 2.08,-1.08 4.26,-2.06 6.09,-3.56 2.59,-2.41 4.03,-5.93 7.14,-7.81 6.4,-4.09 13.8,-6.46 21.3,-7.49 z"
     id="path14"
     inkscape:export-xdpi="90"
     inkscape:export-ydpi="90" />
  <path
     inkscape:connector-curvature="0"
     style="fill:#090909;stroke:#000000;stroke-width:0.08;stroke-linecap:butt;stroke-linejoin:miter;stroke-miterlimit:4;stroke-dasharray:none;stroke-opacity:1"
     d="m 230.09839,256.82253 c 11.58,-0.48 23.16,-0.85 34.75,-1.22 14.09,-0.08 28.19,0.65 42.28,0.09 9.49,0.85 19.02,1.02 28.53,1.7 -0.87,0.94 -1.74,1.88 -2.6,2.83 0.46,3.79 0.97,7.57 1.53,11.35 9.49,1.93 19.14,2.8 28.72,4.18 3.51,0.47 6.88,1.58 10.16,2.9 -1.73,0.53 -3.46,1.06 -5.2,1.51 -3.21,-0.58 -6.36,-1.46 -9.59,-1.93 -12.01,-1.49 -24.12,-2.03 -36.21,-2.26 1.46,4.86 3.46,9.62 3.94,14.72 0.34,2.37 0.33,4.84 1.17,7.11 1.9,2.95 4.78,5.08 7.11,7.68 7.48,8.98 20.38,12.61 31.63,10.14 11.36,-6.93 13.59,-21.52 14.02,-33.72 0.09,-1.32 0.2,-2.65 0.32,-3.96 0.93,-0.61 1.86,-1.21 2.8,-1.81 l 0.82,0.23 c 1.87,1.66 3.63,3.43 5.43,5.18 -2.9,10.42 -5.22,21.21 -10.66,30.69 -1.92,3.25 -4.73,6.52 -8.72,6.97 -11.99,1.57 -24.38,-2.1 -34.07,-9.21 -6.04,-4.33 -11.39,-9.56 -17.75,-13.43 3.05,3.66 6.58,6.89 10.4,9.73 5.94,4.4 11.26,9.71 17.92,13.06 9.25,4.81 19.03,8.62 27.85,14.24 1.11,0.83 2.41,1.67 2.89,3.07 0.09,0.68 0.27,2.06 0.36,2.75 -0.87,-0.86 -1.72,-1.73 -2.58,-2.59 0.57,6.8 1.5,13.63 3.83,20.07 1.81,5.84 7.36,9.3 10.02,14.67 -4.51,-0.94 -8.46,-3.31 -12.18,-5.91 -1.81,-1.5 -4.13,-0.38 -6.11,-0.01 0.13,-0.24 0.41,-0.74 0.54,-0.99 1.89,-3.3 3.37,-7.04 2.92,-10.9 -0.51,-5.08 -1.87,-10.02 -2.94,-15 -0.78,-3.33 -1.82,-7.18 -5.25,-8.69 -7.12,-3.68 -14.74,-6.31 -21.71,-10.3 -17.91,-9.8 -30.96,-26.26 -48.62,-36.42 -8.75,-5.03 -19.45,-5.92 -29.15,-3.56 -8.14,2.05 -14.94,7.23 -21.35,12.4 -5.5,4.54 -10.68,9.45 -16.25,13.91 3.85,-7.07 11.35,-10.76 16.58,-16.62 -13.31,6.98 -22.86,19.47 -36.59,25.71 -7.29,3.1 -15.35,5.05 -23.29,3.93 -4.77,-0.59 -7.83,-4.82 -9.79,-8.81 -4.54,-9.43 -7.43,-19.54 -9.66,-29.73 2.55,-1.38 5.26,-2.4 8,-3.32 0.28,3.53 0.51,7.08 0.94,10.6 1.36,8.42 3.71,17.14 9.17,23.88 3.24,4.22 8.98,4.42 13.85,4.46 5.96,-0.64 11.83,-2.54 16.79,-5.96 5.65,-3.91 10.44,-8.9 15.92,-13.03 2.31,-1.93 5.1,-3.61 6.34,-6.49 1.3,-3.01 2.25,-6.17 3.43,-9.23 7.63,-0.12 15.24,-1.34 22.65,-3.08 1.41,-0.12 0.82,-2.22 -0.35,-2.35 -1.96,-1.28 -4.36,-0.49 -6.49,-0.3 -5.61,1.16 -11.14,-1.28 -16.77,-0.66 -9.17,0.73 -18.35,1.44 -27.53,2.1 -10.91,0.06 -21.63,2.16 -32.42,3.52 -0.44,-0.29 -1.32,-0.86 -1.76,-1.15 8.63,-3.6 18.44,-2.41 26.92,-6.4 -6.37,-0.28 -12.64,2.25 -18.97,0.82 7.58,-1.52 15.24,-2.53 22.95,-3.12 6.36,-0.73 12.93,-0.61 19.08,-2.56 3.58,-1.57 3.33,-6.11 3.87,-9.36 -2.9,-0.51 -5.78,-1.08 -8.69,-1.51 2.27,-0.17 4.54,-0.44 6.82,-0.61 z"
     id="path16"
     inkscape:export-xdpi="90"
     inkscape:export-ydpi="90" />
  <path
     inkscape:connector-curvature="0"
     style="fill:#444444;stroke:#000000;stroke-width:0.08;stroke-linecap:butt;stroke-linejoin:miter;stroke-miterlimit:4;stroke-dasharray:none;stroke-opacity:1"
     d="m 199.07839,259.32253 c 8.06,-0.68 16.1,-1.72 24.2,-1.89 2.91,0.43 5.79,1 8.69,1.51 -0.54,3.25 -0.29,7.79 -3.87,9.36 -6.15,1.95 -12.72,1.83 -19.08,2.56 -0.52,-2.7 -0.96,-5.58 -2.76,-7.76 -1.79,-2.17 -4.62,-2.95 -7.18,-3.78 z"
     id="path18"
     inkscape:export-xdpi="90"
     inkscape:export-ydpi="90" />
  <path
     inkscape:connector-curvature="0"
     style="fill:#444444;stroke:#000000;stroke-width:0.08;stroke-linecap:butt;stroke-linejoin:miter;stroke-miterlimit:4;stroke-dasharray:none;stroke-opacity:1"
     d="m 335.65839,257.39253 c 6.11,0.42 12.21,1.02 18.34,1.23 8.44,1.11 16.89,2.25 25.21,4.1 -3.87,2.7 -8.23,0.04 -12.28,-0.56 -1.37,-0.16 -3.25,-0.73 -4.18,0.67 -2.08,2.52 -3.64,5.4 -5.39,8.13 8.65,2.01 17.59,2.55 26.1,5.17 -0.94,0.6 -1.87,1.2 -2.8,1.81 -0.12,1.31 -0.23,2.64 -0.32,3.96 -4.06,-0.36 -8.09,-0.91 -12.07,-1.74 1.74,-0.45 3.47,-0.98 5.2,-1.51 -3.28,-1.32 -6.65,-2.43 -10.16,-2.9 -9.58,-1.38 -19.23,-2.25 -28.72,-4.18 -0.56,-3.78 -1.07,-7.56 -1.53,-11.35 0.86,-0.95 1.73,-1.89 2.6,-2.83 z"
     id="path20"
     inkscape:export-xdpi="90"
     inkscape:export-ydpi="90" />
  <path
     inkscape:connector-curvature="0"
     style="fill:#737271;stroke:#000000;stroke-width:0.08;stroke-linecap:butt;stroke-linejoin:miter;stroke-miterlimit:4;stroke-dasharray:none;stroke-opacity:1"
     d="m 161.36839,266.29253 c 12.18,-4.02 24.99,-5.74 37.71,-6.97 2.56,0.83 5.39,1.61 7.18,3.78 1.8,2.18 2.24,5.06 2.76,7.76 -7.71,0.59 -15.37,1.6 -22.95,3.12 -7.9,0.15 -15.52,2.48 -23.32,3.54 -0.51,-3.74 -0.97,-7.48 -1.38,-11.23 z"
     id="path22"
     inkscape:export-xdpi="90"
     inkscape:export-ydpi="90" />
  <path
     inkscape:connector-curvature="0"
     style="fill:#737271;stroke:#000000;stroke-width:0.08;stroke-linecap:butt;stroke-linejoin:miter;stroke-miterlimit:4;stroke-dasharray:none;stroke-opacity:1"
     d="m 362.74839,262.83253 c 0.93,-1.4 2.81,-0.83 4.18,-0.67 4.05,0.6 8.41,3.26 12.28,0.56 6.79,0.9 13.49,2.58 19.8,5.28 -1.04,3.47 -1.54,7.06 -1.86,10.66 -4.31,-0.66 -8.62,-1.32 -12.87,-2.3 l -0.82,-0.23 c -8.51,-2.62 -17.45,-3.16 -26.1,-5.17 1.75,-2.73 3.31,-5.61 5.39,-8.13 z"
     id="path24"
     inkscape:export-xdpi="90"
     inkscape:export-ydpi="90" />
  <path
     inkscape:connector-curvature="0"
     style="fill:#444444;stroke:#000000;stroke-width:0.08;stroke-linecap:butt;stroke-linejoin:miter;stroke-miterlimit:4;stroke-dasharray:none;stroke-opacity:1"
     d="m 156.90839,268.11253 c 1.48,-0.62 2.95,-1.25 4.46,-1.82 0.41,3.75 0.87,7.49 1.38,11.23 7.8,-1.06 15.42,-3.39 23.32,-3.54 6.33,1.43 12.6,-1.1 18.97,-0.82 -8.48,3.99 -18.29,2.8 -26.92,6.4 0.44,0.29 1.32,0.86 1.76,1.15 -1.48,0.34 -2.94,0.74 -4.41,1.12 -0.09,2.01 -0.19,4.01 -0.18,6.02 -0.43,-3.52 -0.66,-7.07 -0.94,-10.6 -2.74,0.92 -5.45,1.94 -8,3.32 -2.42,1.3 -4.84,2.58 -7.32,3.74 -0.1,-0.47 -0.3,-1.43 -0.39,-1.91 1.39,-1.48 3.16,-2.52 4.84,-3.63 -1.65,-0.62 -4.17,-0.22 -4.98,-2.13 -0.65,-2.82 -0.52,-5.8 -1.59,-8.53 z"
     id="path26"
     inkscape:export-xdpi="90"
     inkscape:export-ydpi="90" />
  <path
     inkscape:connector-curvature="0"
     style="fill:#444444;stroke:#000000;stroke-width:0.08;stroke-linecap:butt;stroke-linejoin:miter;stroke-miterlimit:4;stroke-dasharray:none;stroke-opacity:1"
     d="m 397.14839,278.66253 c 0.32,-3.6 0.82,-7.19 1.86,-10.66 0.67,0.29 2.02,0.87 2.69,1.16 -4.31,1.61 -1.28,6.8 -1.29,10.12 -1.98,0.03 -3.96,0.07 -5.93,0.09 0.72,1.06 1.43,2.13 2.16,3.2 -2.31,-0.4 -4.62,-0.71 -6.93,-1.03 -1.8,-1.75 -3.56,-3.52 -5.43,-5.18 4.25,0.98 8.56,1.64 12.87,2.3 z"
     id="path28"
     inkscape:export-xdpi="90"
     inkscape:export-ydpi="90" />
  <path
     inkscape:connector-curvature="0"
     style="fill:#444444;stroke:#000000;stroke-width:0.08;stroke-linecap:butt;stroke-linejoin:miter;stroke-miterlimit:4;stroke-dasharray:none;stroke-opacity:1"
     d="m 212.29839,277.19253 c 9.18,-0.66 18.36,-1.37 27.53,-2.1 5.63,-0.62 11.16,1.82 16.77,0.66 2.13,-0.19 4.53,-0.98 6.49,0.3 1.17,0.13 1.76,2.23 0.35,2.35 -7.41,1.74 -15.02,2.96 -22.65,3.08 -1.18,3.06 -2.13,6.22 -3.43,9.23 -1.24,2.88 -4.03,4.56 -6.34,6.49 -5.48,4.13 -10.27,9.12 -15.92,13.03 -4.96,3.42 -10.83,5.32 -16.79,5.96 -0.63,-2.45 -2.19,-5.09 -1.1,-7.62 2.63,-1.57 5.85,-2.07 8.27,-4.01 2.74,-2.93 4.5,-6.67 7.56,-9.32 3.13,-3.08 7.32,-5.57 8.88,-9.87 -0.11,-2.67 -1.31,-5.13 -2.15,-7.62 -2.49,-0.22 -4.97,-0.45 -7.47,-0.56 z"
     id="path30"
     inkscape:export-xdpi="90"
     inkscape:export-ydpi="90" />
  <path
     inkscape:connector-curvature="0"
     style="fill:#444444;stroke:#000000;stroke-width:0.08;stroke-linecap:butt;stroke-linejoin:miter;stroke-miterlimit:4;stroke-dasharray:none;stroke-opacity:1"
     d="m 299.03839,275.26253 c 3.7,-0.43 6.98,1.94 10.66,2.02 1.88,-0.11 3.85,1.15 3.58,3.25 0.34,1.45 -1.75,1.74 -2.76,1.73 -7.73,0.43 -15.4,-1.54 -22.22,-5.12 3.45,-1.21 7.11,-1.63 10.74,-1.88 z"
     id="path32"
     inkscape:export-xdpi="90"
     inkscape:export-ydpi="90" />
  <path
     inkscape:connector-curvature="0"
     style="fill:#444444;stroke:#000000;stroke-width:0.08;stroke-linecap:butt;stroke-linejoin:miter;stroke-miterlimit:4;stroke-dasharray:none;stroke-opacity:1"
     d="m 322.46839,275.97253 c 12.09,0.23 24.2,0.77 36.21,2.26 -5.15,0.37 -8.09,5.18 -10.59,9.1 -2.21,3.25 1.86,5.86 3.68,8.11 4.91,4.1 3.78,11.2 7.07,16.29 1.95,-1.02 3.9,-2.02 5.86,-3.02 0.47,2.31 0.99,4.62 1.62,6.91 -11.25,2.47 -24.15,-1.16 -31.63,-10.14 -2.33,-2.6 -5.21,-4.73 -7.11,-7.68 -0.84,-2.27 -0.83,-4.74 -1.17,-7.11 -0.48,-5.1 -2.48,-9.86 -3.94,-14.72 z"
     id="path34"
     inkscape:export-xdpi="90"
     inkscape:export-ydpi="90" />
  <path
     inkscape:connector-curvature="0"
     style="fill:#737271;stroke:#000000;stroke-width:0.08;stroke-linecap:butt;stroke-linejoin:miter;stroke-miterlimit:4;stroke-dasharray:none;stroke-opacity:1"
     d="m 179.87839,280.71253 c 10.79,-1.36 21.51,-3.46 32.42,-3.52 2.5,0.11 4.98,0.34 7.47,0.56 0.84,2.49 2.04,4.95 2.15,7.62 -1.56,4.3 -5.75,6.79 -8.88,9.87 -3.06,2.65 -4.82,6.39 -7.56,9.32 -2.42,1.94 -5.64,2.44 -8.27,4.01 -1.09,2.53 0.47,5.17 1.1,7.62 -4.87,-0.04 -10.61,-0.24 -13.85,-4.46 -5.46,-6.74 -7.81,-15.46 -9.17,-23.88 -0.01,-2.01 0.09,-4.01 0.18,-6.02 1.47,-0.38 2.93,-0.78 4.41,-1.12 z"
     id="path36"
     inkscape:export-xdpi="90"
     inkscape:export-ydpi="90" />
  <path
     inkscape:connector-curvature="0"
     style="fill:#dadada;stroke:#000000;stroke-width:0.08;stroke-linecap:butt;stroke-linejoin:miter;stroke-miterlimit:4;stroke-dasharray:none;stroke-opacity:1"
     d="m 266.69839,279.78253 c 9.7,-2.36 20.4,-1.47 29.15,3.56 17.66,10.16 30.71,26.62 48.62,36.42 6.97,3.99 14.59,6.62 21.71,10.3 3.43,1.51 4.47,5.36 5.25,8.69 1.07,4.98 2.43,9.92 2.94,15 0.45,3.86 -1.03,7.6 -2.92,10.9 -7.79,10.18 -13.06,23.13 -24.62,29.77 -7.94,-4.05 -13.79,-10.92 -20.73,-16.33 -9.71,-7.7 -18.21,-16.89 -28.56,-23.78 -2.8,-2.03 -6.18,-3.6 -8.1,-6.59 -1.92,-4.73 -1,-9.97 -0.67,-14.9 0.72,-6.3 -0.42,-12.61 0.02,-18.92 1,-10.55 -3.33,-21.2 0.3,-31.57 -5.1,-1.69 -10.51,-1.73 -15.82,-1.47 -0.52,7.46 -0.44,14.94 -1.09,22.38 -1.14,12.8 -0.14,25.65 -0.53,38.46 -0.32,2.41 -0.05,5.95 -2.93,6.84 -5.72,2.14 -11.5,4.35 -16.35,8.17 -1.2,-3.55 -1.44,-7.34 -0.76,-11.03 1.4,-8.27 1.05,-16.67 1.11,-25.02 -0.01,-4.82 -0.42,-9.66 -1.48,-14.37 -0.75,-5.27 -6.22,-8.51 -5.89,-14.11 6.41,-5.17 13.21,-10.35 21.35,-12.4 z"
     id="path38"
     inkscape:export-xdpi="90"
     inkscape:export-ydpi="90" />
  <path
     inkscape:connector-curvature="0"
     style="fill:#737271;stroke:#000000;stroke-width:0.08;stroke-linecap:butt;stroke-linejoin:miter;stroke-miterlimit:4;stroke-dasharray:none;stroke-opacity:1"
     d="m 348.08839,287.33253 c 2.5,-3.92 5.44,-8.73 10.59,-9.1 3.23,0.47 6.38,1.35 9.59,1.93 3.98,0.83 8.01,1.38 12.07,1.74 -0.43,12.2 -2.66,26.79 -14.02,33.72 -0.63,-2.29 -1.15,-4.6 -1.62,-6.91 -1.96,1 -3.91,2 -5.86,3.02 -3.29,-5.09 -2.16,-12.19 -7.07,-16.29 -1.82,-2.25 -5.89,-4.86 -3.68,-8.11 z"
     id="path40"
     inkscape:export-xdpi="90"
     inkscape:export-ydpi="90" />
  <path
     inkscape:connector-curvature="0"
     style="fill:#737271;stroke:#000000;stroke-width:0.08;stroke-linecap:butt;stroke-linejoin:miter;stroke-miterlimit:4;stroke-dasharray:none;stroke-opacity:1"
     d="m 159.02839,284.31253 c 2.48,-1.16 4.9,-2.44 7.32,-3.74 2.23,10.19 5.12,20.3 9.66,29.73 1.96,3.99 5.02,8.22 9.79,8.81 7.94,1.12 16,-0.83 23.29,-3.93 13.73,-6.24 23.28,-18.73 36.59,-25.71 -5.23,5.86 -12.73,9.55 -16.58,16.62 -0.75,0.68 -1.52,1.35 -2.3,2 -5.85,2.38 -10.23,7.1 -15.69,10.14 -10.19,5.6 -21.45,9.38 -30.85,16.36 -3.44,6.55 -2.51,14.41 -5.79,21.02 -2.37,4.67 -6.89,7.65 -11.25,10.27 l -0.41,-0.67 c -3.24,-6.09 -3.93,-13.13 -4.92,-19.85 -0.77,-4.34 2.98,-7.37 5.75,-10.06 0.89,-0.82 1.78,-1.63 2.67,-2.44 3.94,-3.57 8.4,-7.26 9.89,-12.59 0.85,-4.54 -1.55,-8.82 -3.23,-12.88 -2.59,-5.34 -4.26,-11.27 -8.16,-15.87 -1.55,-0.55 -3.13,-1.01 -4.7,-1.49 -0.34,-1.91 -0.69,-3.82 -1.08,-5.72 z"
     id="path42"
     inkscape:export-xdpi="90"
     inkscape:export-ydpi="90" />
  <path
     inkscape:connector-curvature="0"
     style="fill:#acacab;stroke:#000000;stroke-width:0.08;stroke-linecap:butt;stroke-linejoin:miter;stroke-miterlimit:4;stroke-dasharray:none;stroke-opacity:1"
     d="m 273.26839,280.86253 c 5.31,-0.26 10.72,-0.22 15.82,1.47 -3.63,10.37 0.7,21.02 -0.3,31.57 -0.44,6.31 0.7,12.62 -0.02,18.92 -0.33,4.93 -1.25,10.17 0.67,14.9 1.92,2.99 5.3,4.56 8.1,6.59 -1.16,0.77 -2.31,1.54 -3.46,2.32 -10.12,-7.52 -25.21,-7.54 -35.07,0.46 -15.8,11.92 -28.94,26.94 -44.13,39.58 -1.83,-0.6 -3.66,-1.21 -5.45,-1.91 10.29,-9.45 21.08,-18.35 31.22,-27.97 3.75,-3.53 7.6,-6.97 11.72,-10.08 4.85,-3.82 10.63,-6.03 16.35,-8.17 2.88,-0.89 2.61,-4.43 2.93,-6.84 0.39,-12.81 -0.61,-25.66 0.53,-38.46 0.65,-7.44 0.57,-14.92 1.09,-22.38 z"
     id="path44"
     inkscape:export-xdpi="90"
     inkscape:export-ydpi="90" />
  <path
     inkscape:connector-curvature="0"
     style="fill:#737271;stroke:#000000;stroke-width:0.08;stroke-linecap:butt;stroke-linejoin:miter;stroke-miterlimit:4;stroke-dasharray:none;stroke-opacity:1"
     d="m 389.70839,281.54253 c 2.31,0.32 4.62,0.63 6.93,1.03 0.36,0.07 1.07,0.2 1.43,0.27 -0.41,0.36 -1.22,1.09 -1.63,1.46 -1.53,1.56 -2.95,3.24 -4.22,5.01 -4.02,6.1 -6.43,13.05 -9.56,19.61 -1.7,3.85 -3.71,8.08 -2.64,12.38 1.3,3.91 4.64,6.6 7.52,9.35 2.28,2.04 4.57,4.08 6.86,6.12 2,2.18 4.78,4.47 4.66,7.71 -0.19,3.91 -0.98,7.76 -1.65,11.61 -0.95,3.76 -2.44,7.39 -4.52,10.67 -3.79,-3.63 -8.38,-6.7 -10.95,-11.39 -2.62,-5.93 -2.16,-12.66 -4.37,-18.71 -0.48,-1.4 -1.78,-2.24 -2.89,-3.07 -8.82,-5.62 -18.6,-9.43 -27.85,-14.24 -6.66,-3.35 -11.98,-8.66 -17.92,-13.06 -3.82,-2.84 -7.35,-6.07 -10.4,-9.73 6.36,3.87 11.71,9.1 17.75,13.43 9.69,7.11 22.08,10.78 34.07,9.21 3.99,-0.45 6.8,-3.72 8.72,-6.97 5.44,-9.48 7.76,-20.27 10.66,-30.69 z"
     id="path46"
     inkscape:export-xdpi="90"
     inkscape:export-ydpi="90" />
  <path
     inkscape:connector-curvature="0"
     style="fill:#dadada;stroke:#000000;stroke-width:0.08;stroke-linecap:butt;stroke-linejoin:miter;stroke-miterlimit:4;stroke-dasharray:none;stroke-opacity:1"
     d="m 398.06839,282.84253 c 1.1,-0.57 2.26,-0.99 3.41,-1.44 0.45,4.21 0.13,8.51 0.91,12.69 1.37,4.58 3.52,8.89 6.2,12.85 1.95,3.72 -2.26,6.99 -1.78,10.73 0.29,3.8 0.68,7.63 1.61,11.33 0.91,1.42 2.25,2.49 3.42,3.69 -0.69,2.68 -1.73,5.54 -0.48,8.24 3.09,8.28 7.54,15.97 10.85,24.15 0.77,1.9 0.99,3.96 1.14,6 -4.45,-4.91 -6.09,-11.43 -9.04,-17.2 -2.38,-4.81 -4.08,-9.91 -6.3,-14.78 -3.79,-8.52 -8.31,-17.04 -8.66,-26.56 -2.43,2.11 -4.7,4.4 -6.78,6.85 3.16,4.46 6.47,8.96 8.24,14.19 0.53,1.72 1.14,3.67 0.28,5.4 -2.43,0.98 -4.67,-1.15 -6.69,-2.21 -2.29,-2.04 -4.58,-4.08 -6.86,-6.12 1.6,-0.7 3.2,-1.4 4.8,-2.1 -2.48,-3.39 -5.92,-5.94 -8.3,-9.39 -0.4,-4.72 2.35,-8.96 3.84,-13.27 2.13,-5.28 3.27,-10.97 6.29,-15.87 1.11,0.41 2.23,0.82 3.35,1.24 -0.38,-2.32 -0.73,-4.65 -1.08,-6.96 0.41,-0.37 1.22,-1.1 1.63,-1.46 z"
     id="path48"
     inkscape:export-xdpi="90"
     inkscape:export-ydpi="90" />
  <path
     inkscape:connector-curvature="0"
     style="fill:#fdfdfd;stroke:#000000;stroke-width:0.08;stroke-linecap:butt;stroke-linejoin:miter;stroke-miterlimit:4;stroke-dasharray:none;stroke-opacity:1"
     d="m 155.04839,293.29253 c 1.57,-3.56 -0.68,-8.86 3.59,-10.89 0.09,0.48 0.29,1.44 0.39,1.91 0.39,1.9 0.74,3.81 1.08,5.72 1.57,0.48 3.15,0.94 4.7,1.49 1.33,6.67 2.85,13.36 5.43,19.68 -0.2,2.69 0.16,5.98 -2.17,7.9 -3.95,3.57 -8.68,7.29 -9.07,13.06 -0.76,2.82 2.86,2.72 4.64,3.14 -2.77,2.69 -6.52,5.72 -5.75,10.06 0.99,6.72 1.68,13.76 4.92,19.85 -1.27,0.4 -2.53,0.8 -3.79,1.21 -0.52,2.06 -1.32,4.12 -1.28,6.29 0.51,2.64 1.92,5.01 2.42,7.66 -0.58,1.2 -1.38,2.29 -2.13,3.39 -3,0.89 -6.42,1.67 -8.04,4.66 3.65,-0.41 7.21,-1.55 10.32,-3.53 0.87,-0.55 1.73,-1.11 2.58,-1.67 0.47,1.46 0.92,2.92 1.31,4.4 -3.83,1.18 -7.62,2.46 -11.36,3.9 0.44,0.66 1.32,1.98 1.76,2.64 3.44,-1.23 6.86,-2.54 10.24,-3.92 0.71,0.77 1.42,1.55 2.13,2.34 -3.61,1.47 -8.66,1.42 -10.8,5.12 3.42,1.92 7.25,-0.61 10.67,-1.35 0.79,0.62 1.58,1.26 2.35,1.91 -3.01,1.36 -5.99,2.76 -8.94,4.25 0.33,0.45 0.97,1.37 1.29,1.83 3.21,-1.19 6.43,-2.34 9.67,-3.44 1.72,3.51 2.88,7.49 5.86,10.21 4.49,4.1 10.03,8.08 16.44,7.55 4.81,-0.01 8.69,-3.11 12.5,-5.63 18.07,-9.44 30.81,-26.34 48.8,-35.92 -1.7,4.56 -3.78,9.03 -4.32,13.93 -0.96,7.52 -4.27,14.42 -6.2,21.69 -0.62,2.01 -1.19,4.28 -3.1,5.46 -4.61,3.18 -9.84,5.41 -14.18,9 -3.77,2.03 -7.35,4.37 -10.77,6.95 -9.88,5.3 -18.72,12.39 -28.86,17.25 -4.01,1.81 -8.17,3.31 -12.02,5.48 7.55,-0.28 14.11,-4.31 20.63,-7.67 4.75,-2.46 8.94,-5.83 13.56,-8.51 3.94,-2.29 8.67,-1.06 12.95,-0.86 -3,2.58 -5.81,5.46 -9.3,7.37 -4.07,1.79 -8.87,1.08 -12.79,3.33 -2.99,1.64 -5.88,3.46 -8.96,4.92 -7.41,3.17 -11.78,10.51 -18.99,14.05 -4.07,-2.03 -8.13,-4.19 -11.52,-7.27 -5.04,-4.36 -8.66,-10.05 -13.46,-14.64 -1.66,-1.73 -2.74,-3.88 -3.82,-5.98 -4.36,-8.89 -10.47,-16.92 -13.65,-26.38 -1.74,-4.68 -0.66,-9.77 -1.72,-14.57 -1,-5.31 -0.37,-10.7 0,-16.03 0.78,0.64 1.57,1.28 2.35,1.93 0.61,-4 1.16,-8 1.81,-11.98 1.9,-12.72 10.48,-23.03 13.79,-35.29 0.6,-2.24 -0.48,-4.43 -0.95,-6.58 4.98,-3.32 4.6,-9.76 5.01,-15.04 0.34,-2.93 -1.94,-5.23 -2.3,-8.01 -0.34,-2.85 2.18,-4.79 3.08,-7.26 1.09,-3.14 2.49,-6.15 3.97,-9.11 z"
     id="path50"
     inkscape:export-xdpi="90"
     inkscape:export-ydpi="90" />
  <path
     inkscape:connector-curvature="0"
     style="fill:#090909;stroke:#000000;stroke-width:0.08;stroke-linecap:butt;stroke-linejoin:miter;stroke-miterlimit:4;stroke-dasharray:none;stroke-opacity:1"
     d="m 160.50839,284.35253 c 1.56,1.72 3.04,3.52 4.44,5.37 -1.6,0.08 -3.19,0.15 -4.78,0.23 0.1,-1.87 0.22,-3.74 0.34,-5.6 z"
     id="path52"
     inkscape:export-xdpi="90"
     inkscape:export-ydpi="90" />
  <path
     inkscape:connector-curvature="0"
     style="fill:#090909;stroke:#000000;stroke-width:0.08;stroke-linecap:butt;stroke-linejoin:miter;stroke-miterlimit:4;stroke-dasharray:none;stroke-opacity:1"
     d="m 392.21839,289.31253 c 1.27,-1.77 2.69,-3.45 4.22,-5.01 0.35,2.31 0.7,4.64 1.08,6.96 -1.12,-0.42 -2.24,-0.83 -3.35,-1.24 -0.49,-0.17 -1.46,-0.53 -1.95,-0.71 z"
     id="path54"
     inkscape:export-xdpi="90"
     inkscape:export-ydpi="90" />
  <path
     inkscape:connector-curvature="0"
     style="fill:#acacab;stroke:#000000;stroke-width:0.08;stroke-linecap:butt;stroke-linejoin:miter;stroke-miterlimit:4;stroke-dasharray:none;stroke-opacity:1"
     d="m 382.65839,308.92253 c 3.13,-6.56 5.54,-13.51 9.56,-19.61 0.49,0.18 1.46,0.54 1.95,0.71 -3.02,4.9 -4.16,10.59 -6.29,15.87 -1.49,4.31 -4.24,8.55 -3.84,13.27 2.38,3.45 5.82,6 8.3,9.39 -1.6,0.7 -3.2,1.4 -4.8,2.1 -2.88,-2.75 -6.22,-5.44 -7.52,-9.35 -1.07,-4.3 0.94,-8.53 2.64,-12.38 z"
     id="path56"
     inkscape:export-xdpi="90"
     inkscape:export-ydpi="90" />
  <path
     inkscape:connector-curvature="0"
     style="fill:#acacab;stroke:#000000;stroke-width:0.08;stroke-linecap:butt;stroke-linejoin:miter;stroke-miterlimit:4;stroke-dasharray:none;stroke-opacity:1"
     d="m 164.80839,291.52253 c 3.9,4.6 5.57,10.53 8.16,15.87 1.68,4.06 4.08,8.34 3.23,12.88 -1.49,5.33 -5.95,9.02 -9.89,12.59 -0.58,-1.6 -1.32,-3.19 -1.45,-4.91 1.93,-3.42 5.75,-5.23 7.81,-8.56 1.33,-3.03 -1.08,-5.7 -2.43,-8.19 -2.58,-6.32 -4.1,-13.01 -5.43,-19.68 z"
     id="path58"
     inkscape:export-xdpi="90"
     inkscape:export-ydpi="90" />
  <path
     inkscape:connector-curvature="0"
     style="fill:#fdfdfd;stroke:#000000;stroke-width:0.08;stroke-linecap:butt;stroke-linejoin:miter;stroke-miterlimit:4;stroke-dasharray:none;stroke-opacity:1"
     d="m 229.09839,306.09253 c 5.57,-4.46 10.75,-9.37 16.25,-13.91 -0.33,5.6 5.14,8.84 5.89,14.11 1.06,4.71 1.47,9.55 1.48,14.37 -0.06,8.35 0.29,16.75 -1.11,25.02 -0.68,3.69 -0.44,7.48 0.76,11.03 -4.12,3.11 -7.97,6.55 -11.72,10.08 -10.14,9.62 -20.93,18.52 -31.22,27.97 -3.4,-1.32 -6.45,-3.46 -8.65,-6.39 -6.41,-8 -11.24,-17.11 -16.72,-25.74 -2.91,-6.69 -0.96,-14 0.45,-20.79 0.77,-3.15 1.16,-6.51 2.88,-9.32 2.03,-2.55 5.23,-3.67 8.05,-5.08 11.22,-5.04 22.54,-10.57 31.36,-19.35 0.78,-0.65 1.55,-1.32 2.3,-2 z"
     id="path60"
     inkscape:export-xdpi="90"
     inkscape:export-ydpi="90" />
  <path
     inkscape:connector-curvature="0"
     style="fill:#090909;stroke:#000000;stroke-width:0.08;stroke-linecap:butt;stroke-linejoin:miter;stroke-miterlimit:4;stroke-dasharray:none;stroke-opacity:1"
     d="m 211.10839,318.23253 c 5.46,-3.04 9.84,-7.76 15.69,-10.14 -8.82,8.78 -20.14,14.31 -31.36,19.35 -2.82,1.41 -6.02,2.53 -8.05,5.08 -1.72,2.81 -2.11,6.17 -2.88,9.32 -1.41,6.79 -3.36,14.1 -0.45,20.79 -5.15,3.32 -10.29,7.71 -16.77,7.54 3.36,-4.91 9.24,-8.36 10.28,-14.61 1.33,-6.92 1.94,-13.97 2.69,-20.97 9.4,-6.98 20.66,-10.76 30.85,-16.36 z"
     id="path62"
     inkscape:export-xdpi="90"
     inkscape:export-ydpi="90" />
  <path
     inkscape:connector-curvature="0"
     style="fill:#dadada;stroke:#000000;stroke-width:0.08;stroke-linecap:butt;stroke-linejoin:miter;stroke-miterlimit:4;stroke-dasharray:none;stroke-opacity:1"
     d="m 170.23839,311.20253 c 1.35,2.49 3.76,5.16 2.43,8.19 -2.06,3.33 -5.88,5.14 -7.81,8.56 0.13,1.72 0.87,3.31 1.45,4.91 -0.89,0.81 -1.78,1.62 -2.67,2.44 -1.78,-0.42 -5.4,-0.32 -4.64,-3.14 0.39,-5.77 5.12,-9.49 9.07,-13.06 2.33,-1.92 1.97,-5.21 2.17,-7.9 z"
     id="path64"
     inkscape:export-xdpi="90"
     inkscape:export-ydpi="90" />
  <path
     inkscape:connector-curvature="0"
     style="fill:#fdfdfd;stroke:#000000;stroke-width:0.08;stroke-linecap:butt;stroke-linejoin:miter;stroke-miterlimit:4;stroke-dasharray:none;stroke-opacity:1"
     d="m 392.56839,319.39253 c 2.08,-2.45 4.35,-4.74 6.78,-6.85 0.35,9.52 4.87,18.04 8.66,26.56 2.22,4.87 3.92,9.97 6.3,14.78 2.95,5.77 4.59,12.29 9.04,17.2 0.58,0.74 0.93,1.59 1.05,2.54 0.6,4.92 -0.09,10.29 2.74,14.67 0.46,-1.97 0.93,-3.94 1.24,-5.93 0.64,5.2 1.93,10.49 0.79,15.72 -1.18,4.68 0.51,9.58 -1.02,14.19 -2.78,9.61 -8.81,17.74 -13.75,26.3 -1.58,2.65 -2.87,5.54 -5.03,7.79 -6.31,6.34 -11.84,13.69 -19.6,18.39 -1.58,0.55 -3.26,0.7 -4.89,0.98 -0.96,-2.12 -2.41,-4.14 -2.66,-6.51 0.6,-1.07 1.36,-2.05 2.07,-3.04 -1.8,0.12 -3.6,0.24 -5.4,0.36 -0.22,-3.02 -0.39,-6.05 -0.78,-9.05 -1.56,-4.7 -4.21,-9.33 -8.56,-11.94 -1.95,-1.19 -3.97,-2.28 -5.98,-3.36 -1.03,-0.58 -2.04,-1.19 -3.04,-1.79 3.95,-2.75 8.05,-5.33 12.54,-7.09 6.98,-2.5 11.6,-8.79 15.41,-14.81 1.65,-2.07 0.14,-4.26 -1.26,-5.93 2.89,1.09 5.91,1.76 8.96,2.24 -0.9,-4.36 -5.72,-5.19 -9.11,-6.88 0.88,-0.5 1.75,-1 2.63,-1.5 2.95,0.9 5.88,1.86 8.79,2.88 0.46,-0.92 0.92,-1.83 1.39,-2.74 -2.58,-1.02 -5.17,-2.01 -7.84,-2.71 0.41,-0.94 0.83,-1.86 1.26,-2.78 2.72,1.06 5.45,2.13 8.18,3.21 0.67,-0.81 1.35,-1.62 2.04,-2.42 -2.78,-1.16 -5.57,-2.31 -8.48,-3.07 0.81,-0.82 1.62,-1.63 2.44,-2.43 2.64,0.8 5.28,1.6 7.93,2.4 0.29,-0.51 0.89,-1.54 1.19,-2.05 -2.47,-1.09 -4.93,-2.17 -7.39,-3.23 0.33,-0.48 0.99,-1.43 1.32,-1.9 2.73,1.01 5.47,2.03 8.2,3.06 0.6,-0.94 1.19,-1.88 1.8,-2.81 -2.63,-1.12 -5.28,-2.21 -7.93,-3.28 -0.66,-0.64 -1.3,-1.28 -1.93,-1.93 0.65,0.01 1.94,0.04 2.59,0.06 3.14,0.69 6.14,1.87 9.15,3 0.2,-0.42 0.61,-1.28 0.81,-1.7 -1.99,-1.03 -4,-2.04 -6.02,-2.99 -1.52,-1.01 -3.15,-1.96 -4.31,-3.4 -1.1,-3.31 -0.56,-6.96 -1.84,-10.22 -0.89,-1.97 -2.33,-3.61 -3.64,-5.29 0.67,-3.85 1.46,-7.7 1.65,-11.61 0.12,-3.24 -2.66,-5.53 -4.66,-7.71 2.02,1.06 4.26,3.19 6.69,2.21 0.86,-1.73 0.25,-3.68 -0.28,-5.4 -1.77,-5.23 -5.08,-9.73 -8.24,-14.19 z"
     id="path66"
     inkscape:export-xdpi="90"
     inkscape:export-ydpi="90" />
  <path
     inkscape:connector-curvature="0"
     style="fill:#444444;stroke:#000000;stroke-width:0.08;stroke-linecap:butt;stroke-linejoin:miter;stroke-miterlimit:4;stroke-dasharray:none;stroke-opacity:1"
     d="m 174.46839,355.61253 c 3.28,-6.61 2.35,-14.47 5.79,-21.02 -0.75,7 -1.36,14.05 -2.69,20.97 -1.04,6.25 -6.92,9.7 -10.28,14.61 6.48,0.17 11.62,-4.22 16.77,-7.54 5.48,8.63 10.31,17.74 16.72,25.74 2.2,2.93 5.25,5.07 8.65,6.39 1.79,0.7 3.62,1.31 5.45,1.91 0.67,0.82 1.33,1.65 2.01,2.47 1.06,-1.67 2.16,-3.31 3.28,-4.94 0.89,0.94 1.79,1.88 2.68,2.83 2.35,-5.59 7.38,-9.05 11.74,-12.93 6.86,-7.95 15.33,-14.28 23.88,-20.29 0.1,0.64 0.29,1.92 0.39,2.56 1.6,-2.56 3.18,-5.14 4.77,-7.7 0.31,0.9 0.62,1.8 0.94,2.71 1.08,-0.87 2.16,-1.74 3.24,-2.6 -1.35,3.34 -2.7,6.68 -4.01,10.04 1.3,-1.02 2.6,-2.03 3.9,-3.04 -0.5,2.05 -0.99,4.12 -1.45,6.19 -3.99,1.29 -7.79,3.09 -11.44,5.14 -17.99,9.58 -30.73,26.48 -48.8,35.92 -1.37,-0.69 -2.74,-1.37 -4.11,-2.05 -3.63,-2.79 -7.04,-5.9 -9.86,-9.52 -1.79,-2.34 -4.17,-4.14 -6.82,-5.39 -0.75,-0.99 -1.48,-2 -2.2,-3.01 -1.92,-5.91 -6.11,-10.59 -9.25,-15.84 -0.56,0.5 -1.11,1.01 -1.67,1.52 -3.25,-4.08 -6.06,-8.48 -8.88,-12.86 4.36,-2.62 8.88,-5.6 11.25,-10.27 z"
     id="path68"
     inkscape:export-xdpi="90"
     inkscape:export-ydpi="90" />
  <path
     inkscape:connector-curvature="0"
     style="fill:#444444;stroke:#000000;stroke-width:0.08;stroke-linecap:butt;stroke-linejoin:miter;stroke-miterlimit:4;stroke-dasharray:none;stroke-opacity:1"
     d="m 375.34839,336.82253 c 0.86,0.86 1.71,1.73 2.58,2.59 -0.09,-0.69 -0.27,-2.07 -0.36,-2.75 2.21,6.05 1.75,12.78 4.37,18.71 2.57,4.69 7.16,7.76 10.95,11.39 -5.28,8.29 -11.7,15.75 -17.72,23.5 -4.92,6.38 -10.41,12.28 -16.04,18.03 -2.28,2.27 -5.07,4.68 -8.52,4.41 -4.43,-0.3 -8.14,-3.06 -11.63,-5.53 -14.61,-10.66 -27.27,-24.08 -43.56,-32.32 -1.41,-4 -2.87,-7.98 -4.2,-12.01 1,1.15 2,2.3 3,3.46 0.53,-0.69 1.05,-1.38 1.58,-2.07 2.88,2.16 5.37,4.77 7.49,7.67 0.31,-0.6 0.62,-1.2 0.94,-1.79 3.28,3.85 7.46,6.78 11.02,10.35 0.54,4.54 5.92,4.18 8.25,7.26 1.93,2.23 3.59,4.68 5.38,7.03 0.59,-0.2 1.19,-0.4 1.79,-0.59 0.26,0.8 0.53,1.6 0.79,2.41 2.02,-0.78 4.11,-1.47 6.31,-1.47 2.99,1.11 6.25,0.83 9.06,-0.68 11.56,-6.64 16.83,-19.59 24.62,-29.77 -0.13,0.25 -0.41,0.75 -0.54,0.99 1.98,-0.37 4.3,-1.49 6.11,0.01 3.72,2.6 7.67,4.97 12.18,5.91 -2.66,-5.37 -8.21,-8.83 -10.02,-14.67 -2.33,-6.44 -3.26,-13.27 -3.83,-20.07 z"
     id="path70"
     inkscape:export-xdpi="90"
     inkscape:export-ydpi="90" />
  <path
     inkscape:connector-curvature="0"
     style="fill:#090909;stroke:#000000;stroke-width:0.08;stroke-linecap:butt;stroke-linejoin:miter;stroke-miterlimit:4;stroke-dasharray:none;stroke-opacity:1"
     d="m 167.71839,338.24253 c 1.45,0.13 1.7,0.77 0.76,1.9 -1.46,-0.14 -1.72,-0.77 -0.76,-1.9 z"
     id="path72"
     inkscape:export-xdpi="90"
     inkscape:export-ydpi="90" />
  <path
     inkscape:connector-curvature="0"
     style="fill:#444444;stroke:#000000;stroke-width:0.08;stroke-linecap:butt;stroke-linejoin:miter;stroke-miterlimit:4;stroke-dasharray:none;stroke-opacity:1"
     d="m 387.71839,338.20253 c 2.04,-1.17 3.02,3.08 0.8,3.24 -1.48,-0.16 -1.89,-2.38 -0.8,-3.24 z"
     id="path74"
     inkscape:export-xdpi="90"
     inkscape:export-ydpi="90" />
  <path
     inkscape:connector-curvature="0"
     style="fill:#090909;stroke:#000000;stroke-width:0.08;stroke-linecap:butt;stroke-linejoin:miter;stroke-miterlimit:4;stroke-dasharray:none;stroke-opacity:1"
     d="m 162.83839,348.00253 c -0.64,-3.03 -0.83,-6.35 1.6,-8.67 0.96,2.97 1.48,6.75 -1.6,8.67 z"
     id="path76"
     inkscape:export-xdpi="90"
     inkscape:export-ydpi="90" />
  <path
     inkscape:connector-curvature="0"
     style="fill:#090909;stroke:#000000;stroke-width:0.08;stroke-linecap:butt;stroke-linejoin:miter;stroke-miterlimit:4;stroke-dasharray:none;stroke-opacity:1"
     d="m 391.38839,340.24253 c 3.65,0.87 3.84,5.64 1.35,7.86 -1.23,-2.45 -1.62,-5.15 -1.35,-7.86 z"
     id="path78"
     inkscape:export-xdpi="90"
     inkscape:export-ydpi="90" />
  <path
     inkscape:connector-curvature="0"
     style="fill:#090909;stroke:#000000;stroke-width:0.08;stroke-linecap:butt;stroke-linejoin:miter;stroke-miterlimit:4;stroke-dasharray:none;stroke-opacity:1"
     d="m 259.00839,357.09253 c 9.86,-8 24.95,-7.98 35.07,-0.46 15.34,11.9 29.25,25.51 43.69,38.47 -2.2,0 -4.29,0.69 -6.31,1.47 -0.26,-0.81 -0.53,-1.61 -0.79,-2.41 -0.6,0.19 -1.2,0.39 -1.79,0.59 -1.79,-2.35 -3.45,-4.8 -5.38,-7.03 -2.33,-3.08 -7.71,-2.72 -8.25,-7.26 -3.56,-3.57 -7.74,-6.5 -11.02,-10.35 -0.32,0.59 -0.63,1.19 -0.94,1.79 -2.12,-2.9 -4.61,-5.51 -7.49,-7.67 -0.53,0.69 -1.05,1.38 -1.58,2.07 -1,-1.16 -2,-2.31 -3,-3.46 1.33,4.03 2.79,8.01 4.2,12.01 -9.06,-4.16 -19.48,-5.14 -29.17,-2.88 0.46,-2.07 0.95,-4.14 1.45,-6.19 -1.3,1.01 -2.6,2.02 -3.9,3.04 1.31,-3.36 2.66,-6.7 4.01,-10.04 -1.08,0.86 -2.16,1.73 -3.24,2.6 -0.32,-0.91 -0.63,-1.81 -0.94,-2.71 -1.59,2.56 -3.17,5.14 -4.77,7.7 -0.1,-0.64 -0.29,-1.92 -0.39,-2.56 -8.55,6.01 -17.02,12.34 -23.88,20.29 -4.36,3.88 -9.39,7.34 -11.74,12.93 -0.89,-0.95 -1.79,-1.89 -2.68,-2.83 -1.12,1.63 -2.22,3.27 -3.28,4.94 -0.68,-0.82 -1.34,-1.65 -2.01,-2.47 15.19,-12.64 28.33,-27.66 44.13,-39.58 z"
     id="path80"
     inkscape:export-xdpi="90"
     inkscape:export-ydpi="90" />
  <path
     inkscape:connector-curvature="0"
     style="fill:#737271;stroke:#000000;stroke-width:0.08;stroke-linecap:butt;stroke-linejoin:miter;stroke-miterlimit:4;stroke-dasharray:none;stroke-opacity:1"
     d="m 294.07839,356.63253 c 1.15,-0.78 2.3,-1.55 3.46,-2.32 10.35,6.89 18.85,16.08 28.56,23.78 6.94,5.41 12.79,12.28 20.73,16.33 -2.81,1.51 -6.07,1.79 -9.06,0.68 -14.44,-12.96 -28.35,-26.57 -43.69,-38.47 z"
     id="path82"
     inkscape:export-xdpi="90"
     inkscape:export-ydpi="90" />
  <path
     inkscape:connector-curvature="0"
     style="fill:#dadada;stroke:#000000;stroke-width:0.08;stroke-linecap:butt;stroke-linejoin:miter;stroke-miterlimit:4;stroke-dasharray:none;stroke-opacity:1"
     d="m 392.88839,366.76253 c 2.08,-3.28 3.57,-6.91 4.52,-10.67 1.31,1.68 2.75,3.32 3.64,5.29 1.28,3.26 0.74,6.91 1.84,10.22 1.16,1.44 2.79,2.39 4.31,3.4 -1.36,-0.17 -2.71,-0.29 -4.07,-0.41 0.04,0.53 0.1,1.57 0.13,2.1 -0.65,-0.02 -1.94,-0.05 -2.59,-0.06 0.63,0.65 1.27,1.29 1.93,1.93 -1.41,-0.21 -2.83,-0.35 -4.25,-0.5 0.72,1.17 1.45,2.35 2.18,3.53 -0.33,0.47 -0.99,1.42 -1.32,1.9 -1.19,0.21 -2.36,0.42 -3.53,0.64 0.59,0.74 1.2,1.49 1.8,2.24 -0.82,0.8 -1.63,1.61 -2.44,2.43 -1.07,-0.02 -2.13,-0.02 -3.18,-0.01 0.47,0.76 0.95,1.52 1.44,2.29 -0.43,0.92 -0.85,1.84 -1.26,2.78 -1.16,-0.29 -2.32,-0.54 -3.48,-0.79 0.37,1.12 0.75,2.24 1.14,3.36 -0.88,0.5 -1.75,1 -2.63,1.5 -0.68,0.38 -2.03,1.14 -2.71,1.52 0.94,1.05 1.89,2.09 2.86,3.12 1.4,1.67 2.91,3.86 1.26,5.93 -3.81,6.02 -8.43,12.31 -15.41,14.81 -4.49,1.76 -8.59,4.34 -12.54,7.09 1,0.6 2.01,1.21 3.04,1.79 -3.17,0.23 -6.72,0.12 -9.36,2.18 -2.6,2.09 -4.5,4.88 -6.59,7.45 -8.62,-7.82 -19.05,-13.27 -28.91,-19.35 -5.64,-3.54 -11.58,-6.54 -17.32,-9.88 -2.28,-1.17 -2.47,-3.92 -2.83,-6.14 -0.91,-8.49 -2.11,-16.96 -3.84,-25.31 -0.79,-3.9 -5.19,-5.18 -8.57,-5.86 -5.31,-0.76 -10.83,-1.02 -16.1,0.08 -2.1,0.4 -2.52,2.84 -2.99,4.57 -1.73,8.54 -1.41,17.37 -3.13,25.91 -0.39,3.72 -4.52,4.41 -7.31,5.71 2.26,-0.27 4.52,-0.49 6.79,-0.7 -0.46,6.47 -0.13,13.8 -4.61,19.05 -6.25,7.06 -14.81,11.39 -22.65,16.41 -9.89,6.01 -18.67,13.7 -28.89,19.19 -5.2,2.82 -10.34,5.75 -15.68,8.3 -5.49,2.65 -11.44,4.13 -17.18,6.1 -7.23,-2.45 -12.71,-8.08 -16.59,-14.47 -3.5,-5.91 -8.21,-11.22 -10.33,-17.84 4.8,4.59 8.42,10.28 13.46,14.64 3.39,3.08 7.45,5.24 11.52,7.27 7.21,-3.54 11.58,-10.88 18.99,-14.05 3.08,-1.46 5.97,-3.28 8.96,-4.92 3.92,-2.25 8.72,-1.54 12.79,-3.33 3.49,-1.91 6.3,-4.79 9.3,-7.37 -4.28,-0.2 -9.01,-1.43 -12.95,0.86 -4.62,2.68 -8.81,6.05 -13.56,8.51 -6.52,3.36 -13.08,7.39 -20.63,7.67 3.85,-2.17 8.01,-3.67 12.02,-5.48 10.14,-4.86 18.98,-11.95 28.86,-17.25 4.25,-1.13 8.33,-3.14 10.77,-6.95 4.34,-3.59 9.57,-5.82 14.18,-9 1.91,-1.18 2.48,-3.45 3.1,-5.46 1.93,-7.27 5.24,-14.17 6.2,-21.69 0.54,-4.9 2.62,-9.37 4.32,-13.93 3.65,-2.05 7.45,-3.85 11.44,-5.14 9.69,-2.26 20.11,-1.28 29.17,2.88 16.29,8.24 28.95,21.66 43.56,32.32 3.49,2.47 7.2,5.23 11.63,5.53 3.45,0.27 6.24,-2.14 8.52,-4.41 5.63,-5.75 11.12,-11.65 16.04,-18.03 6.02,-7.75 12.44,-15.21 17.72,-23.5 z"
     id="path84"
     inkscape:export-xdpi="90"
     inkscape:export-ydpi="90" />
  <path
     inkscape:connector-curvature="0"
     style="fill:#dadada;stroke:#000000;stroke-width:0.08;stroke-linecap:butt;stroke-linejoin:miter;stroke-miterlimit:4;stroke-dasharray:none;stroke-opacity:1"
     d="m 159.01839,366.42253 c 1.26,-0.41 2.52,-0.81 3.79,-1.21 l 0.41,0.67 c 2.82,4.38 5.63,8.78 8.88,12.86 3.62,4.79 7.03,9.74 10.92,14.32 0.72,1.01 1.45,2.02 2.2,3.01 4.73,5.74 9.38,12.29 16.68,14.91 1.37,0.68 2.74,1.36 4.11,2.05 -3.81,2.52 -7.69,5.62 -12.5,5.63 -6.41,0.53 -11.95,-3.45 -16.44,-7.55 -2.98,-2.72 -4.14,-6.7 -5.86,-10.21 -0.59,-0.94 -1.28,-1.82 -2.02,-2.64 -0.77,-0.65 -1.56,-1.29 -2.35,-1.91 0.04,-1.26 0.08,-2.52 0.13,-3.77 -0.71,-0.79 -1.42,-1.57 -2.13,-2.34 -0.21,-0.88 -0.42,-1.75 -0.64,-2.62 -0.39,-1.48 -0.84,-2.94 -1.31,-4.4 -0.85,0.56 -1.71,1.12 -2.58,1.67 -0.76,-0.38 -1.52,-0.75 -2.28,-1.13 0.75,-1.1 1.55,-2.19 2.13,-3.39 -0.5,-2.65 -1.91,-5.02 -2.42,-7.66 -0.04,-2.17 0.76,-4.23 1.28,-6.29 z"
     id="path86"
     inkscape:export-xdpi="90"
     inkscape:export-ydpi="90" />
  <path
     inkscape:connector-curvature="0"
     style="fill:#737271;stroke:#000000;stroke-width:0.08;stroke-linecap:butt;stroke-linejoin:miter;stroke-miterlimit:4;stroke-dasharray:none;stroke-opacity:1"
     d="m 141.29839,375.44253 c 1.94,-3.61 5.97,-5 9.58,-6.34 -2.17,3.37 -5.94,5.04 -9.58,6.34 z"
     id="path88"
     inkscape:export-xdpi="90"
     inkscape:export-ydpi="90" />
  <path
     inkscape:connector-curvature="0"
     style="fill:#737271;stroke:#000000;stroke-width:0.08;stroke-linecap:butt;stroke-linejoin:miter;stroke-miterlimit:4;stroke-dasharray:none;stroke-opacity:1"
     d="m 406.37839,369.79253 c 3.99,0.68 7.95,2.4 10.31,5.84 -3.98,-0.65 -8.09,-2.29 -10.31,-5.84 z"
     id="path90"
     inkscape:export-xdpi="90"
     inkscape:export-ydpi="90" />
  <path
     inkscape:connector-curvature="0"
     style="fill:#737271;stroke:#000000;stroke-width:0.08;stroke-linecap:butt;stroke-linejoin:miter;stroke-miterlimit:4;stroke-dasharray:none;stroke-opacity:1"
     d="m 144.22839,379.49253 c 1.16,-4.45 6.86,-4.34 10.51,-5.45 -3,2.66 -6.65,4.44 -10.51,5.45 z"
     id="path92"
     inkscape:export-xdpi="90"
     inkscape:export-ydpi="90" />
  <path
     inkscape:connector-curvature="0"
     style="fill:#acacab;stroke:#000000;stroke-width:0.08;stroke-linecap:butt;stroke-linejoin:miter;stroke-miterlimit:4;stroke-dasharray:none;stroke-opacity:1"
     d="m 424.39839,373.62253 c 2.69,2.06 4.24,5.33 3.98,8.74 -0.31,1.99 -0.78,3.96 -1.24,5.93 -2.83,-4.38 -2.14,-9.75 -2.74,-14.67 z"
     id="path94"
     inkscape:export-xdpi="90"
     inkscape:export-ydpi="90" />
  <path
     inkscape:connector-curvature="0"
     style="fill:#737271;stroke:#000000;stroke-width:0.08;stroke-linecap:butt;stroke-linejoin:miter;stroke-miterlimit:4;stroke-dasharray:none;stroke-opacity:1"
     d="m 128.28839,384.63253 c 0.22,-3.73 1.36,-7.43 4.16,-10.05 -0.65,3.98 -1.2,7.98 -1.81,11.98 -0.78,-0.65 -1.57,-1.29 -2.35,-1.93 z"
     id="path96"
     inkscape:export-xdpi="90"
     inkscape:export-ydpi="90" />
  <path
     inkscape:connector-curvature="0"
     style="fill:#acacab;stroke:#000000;stroke-width:0.08;stroke-linecap:butt;stroke-linejoin:miter;stroke-miterlimit:4;stroke-dasharray:none;stroke-opacity:1"
     d="m 270.04839,375.36253 c 5.27,-1.1 10.79,-0.84 16.1,-0.08 3.38,0.68 7.78,1.96 8.57,5.86 1.73,8.35 2.93,16.82 3.84,25.31 0.36,2.22 0.55,4.97 2.83,6.14 5.74,3.34 11.68,6.34 17.32,9.88 9.86,6.08 20.29,11.53 28.91,19.35 -17.43,-10.44 -34.19,-22.38 -53.2,-29.84 2.82,6.95 6.86,13.4 11.62,19.18 6.14,5.91 12.98,11.04 19.57,16.42 3.28,2.74 6.5,5.62 10.26,7.71 5.18,2.92 10.78,5.06 15.85,8.21 4.53,2.69 8.51,6.2 12.99,8.98 6.02,3.77 13.32,4.13 20.14,5.29 -2.14,1.55 -4.51,2.91 -7.17,3.2 -10.34,1.14 -19,-5.2 -27.67,-9.71 -8.27,-4.23 -16.02,-9.37 -24.08,-13.97 -9.84,-5.91 -20.23,-10.87 -29.86,-17.13 -4.13,-2.41 -8.03,-5.59 -12.79,-6.62 -6.86,-0.53 -13.7,1.81 -19.43,5.5 -10.62,6.58 -21.98,11.87 -32.72,18.25 -8.59,4.59 -16.25,10.71 -25.02,14.98 -7.95,3.86 -15.57,9.36 -24.72,9.69 -2.41,-0.39 -4.71,-1.25 -6.99,-2.06 5.74,-1.97 11.69,-3.45 17.18,-6.1 5.34,-2.55 10.48,-5.48 15.68,-8.3 10.22,-5.49 19,-13.18 28.89,-19.19 7.84,-5.02 16.4,-9.35 22.65,-16.41 4.48,-5.25 4.15,-12.58 4.61,-19.05 -2.27,0.21 -4.53,0.43 -6.79,0.7 2.79,-1.3 6.92,-1.99 7.31,-5.71 1.72,-8.54 1.4,-17.37 3.13,-25.91 0.47,-1.73 0.89,-4.17 2.99,-4.57 z"
     id="path98"
     inkscape:export-xdpi="90"
     inkscape:export-ydpi="90" />
  <path
     inkscape:connector-curvature="0"
     style="fill:#737271;stroke:#000000;stroke-width:0.08;stroke-linecap:butt;stroke-linejoin:miter;stroke-miterlimit:4;stroke-dasharray:none;stroke-opacity:1"
     d="m 403.12839,374.59253 c 1.36,0.12 2.71,0.24 4.07,0.41 2.02,0.95 4.03,1.96 6.02,2.99 -0.2,0.42 -0.61,1.28 -0.81,1.7 -3.01,-1.13 -6.01,-2.31 -9.15,-3 -0.03,-0.53 -0.09,-1.57 -0.13,-2.1 z"
     id="path100"
     inkscape:export-xdpi="90"
     inkscape:export-ydpi="90" />
  <path
     inkscape:connector-curvature="0"
     style="fill:#090909;stroke:#000000;stroke-width:0.08;stroke-linecap:butt;stroke-linejoin:miter;stroke-miterlimit:4;stroke-dasharray:none;stroke-opacity:1"
     d="m 172.09839,378.74253 c 0.56,-0.51 1.11,-1.02 1.67,-1.52 3.14,5.25 7.33,9.93 9.25,15.84 -3.89,-4.58 -7.3,-9.53 -10.92,-14.32 z"
     id="path102"
     inkscape:export-xdpi="90"
     inkscape:export-ydpi="90" />
  <path
     inkscape:connector-curvature="0"
     style="fill:#acacab;stroke:#000000;stroke-width:0.08;stroke-linecap:butt;stroke-linejoin:miter;stroke-miterlimit:4;stroke-dasharray:none;stroke-opacity:1"
     d="m 398.34839,378.06253 c 1.42,0.15 2.84,0.29 4.25,0.5 2.65,1.07 5.3,2.16 7.93,3.28 -0.61,0.93 -1.2,1.87 -1.8,2.81 -2.73,-1.03 -5.47,-2.05 -8.2,-3.06 -0.73,-1.18 -1.46,-2.36 -2.18,-3.53 z"
     id="path104"
     inkscape:export-xdpi="90"
     inkscape:export-ydpi="90" />
  <path
     inkscape:connector-curvature="0"
     style="fill:#737271;stroke:#000000;stroke-width:0.08;stroke-linecap:butt;stroke-linejoin:miter;stroke-miterlimit:4;stroke-dasharray:none;stroke-opacity:1"
     d="m 146.56839,381.94253 c 3.55,-1.54 7.24,-2.87 11.14,-3.02 -2.48,2.64 -6.02,3.65 -9.28,4.96 -0.62,-0.65 -1.24,-1.3 -1.86,-1.94 z"
     id="path106"
     inkscape:export-xdpi="90"
     inkscape:export-ydpi="90" />
  <path
     inkscape:connector-curvature="0"
     style="fill:#737271;stroke:#000000;stroke-width:0.08;stroke-linecap:butt;stroke-linejoin:miter;stroke-miterlimit:4;stroke-dasharray:none;stroke-opacity:1"
     d="m 149.98839,388.42253 c 1.62,-2.99 5.04,-3.77 8.04,-4.66 0.76,0.38 1.52,0.75 2.28,1.13 -3.11,1.98 -6.67,3.12 -10.32,3.53 z"
     id="path108"
     inkscape:export-xdpi="90"
     inkscape:export-ydpi="90" />
  <path
     inkscape:connector-curvature="0"
     style="fill:#737271;stroke:#000000;stroke-width:0.08;stroke-linecap:butt;stroke-linejoin:miter;stroke-miterlimit:4;stroke-dasharray:none;stroke-opacity:1"
     d="m 395.67839,384.13253 c 1.17,-0.22 2.34,-0.43 3.53,-0.64 2.46,1.06 4.92,2.14 7.39,3.23 -0.3,0.51 -0.9,1.54 -1.19,2.05 -2.65,-0.8 -5.29,-1.6 -7.93,-2.4 -0.6,-0.75 -1.21,-1.5 -1.8,-2.24 z"
     id="path110"
     inkscape:export-xdpi="90"
     inkscape:export-ydpi="90" />
  <path
     inkscape:connector-curvature="0"
     style="fill:#acacab;stroke:#000000;stroke-width:0.08;stroke-linecap:butt;stroke-linejoin:miter;stroke-miterlimit:4;stroke-dasharray:none;stroke-opacity:1"
     d="m 164.19839,387.62253 c 0.22,0.87 0.43,1.74 0.64,2.62 -3.38,1.38 -6.8,2.69 -10.24,3.92 -0.44,-0.66 -1.32,-1.98 -1.76,-2.64 3.74,-1.44 7.53,-2.72 11.36,-3.9 z"
     id="path112"
     inkscape:export-xdpi="90"
     inkscape:export-ydpi="90" />
  <path
     inkscape:connector-curvature="0"
     style="fill:#737271;stroke:#000000;stroke-width:0.08;stroke-linecap:butt;stroke-linejoin:miter;stroke-miterlimit:4;stroke-dasharray:none;stroke-opacity:1"
     d="m 391.85839,388.79253 c 1.05,-0.01 2.11,-0.01 3.18,0.01 2.91,0.76 5.7,1.91 8.48,3.07 -0.69,0.8 -1.37,1.61 -2.04,2.42 -2.73,-1.08 -5.46,-2.15 -8.18,-3.21 -0.49,-0.77 -0.97,-1.53 -1.44,-2.29 z"
     id="path114"
     inkscape:export-xdpi="90"
     inkscape:export-ydpi="90" />
  <path
     inkscape:connector-curvature="0"
     style="fill:#acacab;stroke:#000000;stroke-width:0.08;stroke-linecap:butt;stroke-linejoin:miter;stroke-miterlimit:4;stroke-dasharray:none;stroke-opacity:1"
     d="m 166.96839,392.58253 c -0.05,1.25 -0.09,2.51 -0.13,3.77 -3.42,0.74 -7.25,3.27 -10.67,1.35 2.14,-3.7 7.19,-3.65 10.8,-5.12 z"
     id="path116"
     inkscape:export-xdpi="90"
     inkscape:export-ydpi="90" />
  <path
     inkscape:connector-curvature="0"
     style="fill:#737271;stroke:#000000;stroke-width:0.08;stroke-linecap:butt;stroke-linejoin:miter;stroke-miterlimit:4;stroke-dasharray:none;stroke-opacity:1"
     d="m 388.55839,393.07253 c 1.16,0.25 2.32,0.5 3.48,0.79 2.67,0.7 5.26,1.69 7.84,2.71 -0.47,0.91 -0.93,1.82 -1.39,2.74 -2.91,-1.02 -5.84,-1.98 -8.79,-2.88 -0.39,-1.12 -0.77,-2.24 -1.14,-3.36 z"
     id="path118"
     inkscape:export-xdpi="90"
     inkscape:export-ydpi="90" />
  <path
     inkscape:connector-curvature="0"
     style="fill:#090909;stroke:#000000;stroke-width:0.08;stroke-linecap:butt;stroke-linejoin:miter;stroke-miterlimit:4;stroke-dasharray:none;stroke-opacity:1"
     d="m 185.21839,396.07253 c 2.65,1.25 5.03,3.05 6.82,5.39 2.82,3.62 6.23,6.73 9.86,9.52 -7.3,-2.62 -11.95,-9.17 -16.68,-14.91 z"
     id="path120"
     inkscape:export-xdpi="90"
     inkscape:export-ydpi="90" />
  <path
     inkscape:connector-curvature="0"
     style="fill:#737271;stroke:#000000;stroke-width:0.08;stroke-linecap:butt;stroke-linejoin:miter;stroke-miterlimit:4;stroke-dasharray:none;stroke-opacity:1"
     d="m 160.24839,402.51253 c 2.95,-1.49 5.93,-2.89 8.94,-4.25 0.74,0.82 1.43,1.7 2.02,2.64 -3.24,1.1 -6.46,2.25 -9.67,3.44 -0.32,-0.46 -0.96,-1.38 -1.29,-1.83 z"
     id="path122"
     inkscape:export-xdpi="90"
     inkscape:export-ydpi="90" />
  <path
     inkscape:connector-curvature="0"
     style="fill:#acacab;stroke:#000000;stroke-width:0.08;stroke-linecap:butt;stroke-linejoin:miter;stroke-miterlimit:4;stroke-dasharray:none;stroke-opacity:1"
     d="m 384.35839,399.45253 c 0.68,-0.38 2.03,-1.14 2.71,-1.52 3.39,1.69 8.21,2.52 9.11,6.88 -3.05,-0.48 -6.07,-1.15 -8.96,-2.24 -0.97,-1.03 -1.92,-2.07 -2.86,-3.12 z"
     id="path124"
     inkscape:export-xdpi="90"
     inkscape:export-ydpi="90" />
  <path
     inkscape:connector-curvature="0"
     style="fill:#090909;stroke:#000000;stroke-width:0.08;stroke-linecap:butt;stroke-linejoin:miter;stroke-miterlimit:4;stroke-dasharray:none;stroke-opacity:1"
     d="m 404.74839,438.68253 c 6.74,-11.86 15.17,-22.69 23.2,-33.69 -0.66,6 -3.07,11.68 -6.48,16.61 -5.72,8.33 -11.5,16.63 -16.75,25.27 -1.68,2.89 -3.79,5.55 -6.6,7.42 1.85,-5.35 4.58,-10.34 6.63,-15.61 z"
     id="path126"
     inkscape:export-xdpi="90"
     inkscape:export-ydpi="90" />
  <path
     inkscape:connector-curvature="0"
     style="fill:#090909;stroke:#000000;stroke-width:0.08;stroke-linecap:butt;stroke-linejoin:miter;stroke-miterlimit:4;stroke-dasharray:none;stroke-opacity:1"
     d="m 129.32839,406.26253 c 8.56,11.42 16.18,23.58 23.78,35.64 1.46,4.21 3.17,8.35 5.51,12.16 -0.49,0.09 -1.49,0.28 -1.99,0.37 -6.95,-8.92 -12.25,-18.97 -18.59,-28.31 -4.07,-6 -7.46,-12.67 -8.71,-19.86 z"
     id="path128"
     inkscape:export-xdpi="90"
     inkscape:export-ydpi="90" />
  <path
     inkscape:connector-curvature="0"
     style="fill:#dadada;stroke:#000000;stroke-width:0.08;stroke-linecap:butt;stroke-linejoin:miter;stroke-miterlimit:4;stroke-dasharray:none;stroke-opacity:1"
     d="m 294.41839,411.98253 c 19.01,7.46 35.77,19.4 53.2,29.84 0.37,6.71 2.9,13.54 8.59,17.51 3.79,2.96 8.79,4.28 13.4,2.52 3.28,-1.43 6.3,-3.36 9.28,-5.31 1.8,-0.12 3.6,-0.24 5.4,-0.36 -0.71,0.99 -1.47,1.97 -2.07,3.04 0.25,2.37 1.7,4.39 2.66,6.51 1.63,-0.28 3.31,-0.43 4.89,-0.98 7.76,-4.7 13.29,-12.05 19.6,-18.39 -1.96,6.66 -6.86,11.84 -10.54,17.58 -3.88,5.19 -7.58,11.57 -13.98,13.83 -6.82,-1.16 -14.12,-1.52 -20.14,-5.29 -4.48,-2.78 -8.46,-6.29 -12.99,-8.98 -5.07,-3.15 -10.67,-5.29 -15.85,-8.21 -3.76,-2.09 -6.98,-4.97 -10.26,-7.71 -6.59,-5.38 -13.43,-10.51 -19.57,-16.42 -4.76,-5.78 -8.8,-12.23 -11.62,-19.18 z"
     id="path130"
     inkscape:export-xdpi="90"
     inkscape:export-ydpi="90" />
  <path
     inkscape:connector-curvature="0"
     style="fill:#acacab;stroke:#000000;stroke-width:0.08;stroke-linecap:butt;stroke-linejoin:miter;stroke-miterlimit:4;stroke-dasharray:none;stroke-opacity:1"
     d="m 216.23839,434.14253 c 3.42,-2.58 7,-4.92 10.77,-6.95 -2.44,3.81 -6.52,5.82 -10.77,6.95 z"
     id="path132"
     inkscape:export-xdpi="90"
     inkscape:export-ydpi="90" />
  <path
     inkscape:connector-curvature="0"
     style="fill:#737271;stroke:#000000;stroke-width:0.08;stroke-linecap:butt;stroke-linejoin:miter;stroke-miterlimit:4;stroke-dasharray:none;stroke-opacity:1"
     d="m 263.84839,439.04253 c 5.73,-3.69 12.57,-6.03 19.43,-5.5 4.76,1.03 8.66,4.21 12.79,6.62 9.63,6.26 20.02,11.22 29.86,17.13 8.06,4.6 15.81,9.74 24.08,13.97 8.67,4.51 17.33,10.85 27.67,9.71 -7.98,2.55 -17.26,3.53 -24.92,-0.49 -3.45,-2.43 -7.39,-3.97 -11.52,-4.76 -6.61,-1.37 -12.56,-4.63 -18.82,-7 -5.11,-2.06 -11.01,-0.45 -15.92,-3.11 -3.95,-2.12 -8.16,-3.78 -12.59,-4.52 -7.36,-1.32 -14.79,-2.94 -22.31,-2.55 -14.37,1.39 -28.61,4.61 -41.97,10.12 -7.1,3.33 -14.72,5.55 -21.38,9.78 -8.16,4.22 -17.89,5.35 -26.86,3.52 9.15,-0.33 16.77,-5.83 24.72,-9.69 8.77,-4.27 16.43,-10.39 25.02,-14.98 10.74,-6.38 22.1,-11.67 32.72,-18.25 z"
     id="path134"
     inkscape:export-xdpi="90"
     inkscape:export-ydpi="90" />
  <path
     inkscape:connector-curvature="0"
     style="fill:#acacab;stroke:#000000;stroke-width:0.08;stroke-linecap:butt;stroke-linejoin:miter;stroke-miterlimit:4;stroke-dasharray:none;stroke-opacity:1"
     d="m 354.20839,434.37253 c 2.64,-2.06 6.19,-1.95 9.36,-2.18 2.01,1.08 4.03,2.17 5.98,3.36 -5.13,-1.14 -10.53,-0.92 -15.39,1.19 2.47,0.36 4.96,0.69 7.45,0.95 -3.86,0.84 -7.67,2.11 -10.81,4.58 5.53,-0.38 10.85,-2.49 16.41,-2.41 2.42,-0.04 3.61,2.38 5.06,3.92 -1.01,0.24 -2,0.48 -3,0.73 0.73,4.22 1.18,9.37 -2.47,12.44 -3.29,1.59 -7.08,1.55 -10.59,2.38 -5.69,-3.97 -8.22,-10.8 -8.59,-17.51 2.09,-2.57 3.99,-5.36 6.59,-7.45 z"
     id="path136"
     inkscape:export-xdpi="90"
     inkscape:export-ydpi="90" />
  <path
     inkscape:connector-curvature="0"
     style="fill:#737271;stroke:#000000;stroke-width:0.08;stroke-linecap:butt;stroke-linejoin:miter;stroke-miterlimit:4;stroke-dasharray:none;stroke-opacity:1"
     d="m 354.15839,436.74253 c 4.86,-2.11 10.26,-2.33 15.39,-1.19 4.35,2.61 7,7.24 8.56,11.94 -1.94,5.28 -5.37,9.76 -8.5,14.36 -4.61,1.76 -9.61,0.44 -13.4,-2.52 3.51,-0.83 7.3,-0.79 10.59,-2.38 3.65,-3.07 3.2,-8.22 2.47,-12.44 1,-0.25 1.99,-0.49 3,-0.73 -1.45,-1.54 -2.64,-3.96 -5.06,-3.92 -5.56,-0.08 -10.88,2.03 -16.41,2.41 3.14,-2.47 6.95,-3.74 10.81,-4.58 -2.49,-0.26 -4.98,-0.59 -7.45,-0.95 z"
     id="path138"
     inkscape:export-xdpi="90"
     inkscape:export-ydpi="90" />
  <path
     inkscape:connector-curvature="0"
     style="fill:#737271;stroke:#000000;stroke-width:0.08;stroke-linecap:butt;stroke-linejoin:miter;stroke-miterlimit:4;stroke-dasharray:none;stroke-opacity:1"
     d="m 391.04839,453.82253 c 4.69,-4.93 8.65,-10.55 13.7,-15.14 -2.05,5.27 -4.78,10.26 -6.63,15.61 l -0.25,0.71 c -2.29,-0.35 -4.56,-0.74 -6.82,-1.18 z"
     id="path140"
     inkscape:export-xdpi="90"
     inkscape:export-ydpi="90" />
  <path
     inkscape:connector-curvature="0"
     style="fill:#737271;stroke:#000000;stroke-width:0.08;stroke-linecap:butt;stroke-linejoin:miter;stroke-miterlimit:4;stroke-dasharray:none;stroke-opacity:1"
     d="m 153.10839,441.90253 c 3.91,3.5 7.06,7.73 10.41,11.75 -1.63,0.13 -3.26,0.27 -4.9,0.41 -2.34,-3.81 -4.05,-7.95 -5.51,-12.16 z"
     id="path142"
     inkscape:export-xdpi="90"
     inkscape:export-ydpi="90" />
  <path
     inkscape:connector-curvature="0"
     style="fill:#090909;stroke:#000000;stroke-width:0.08;stroke-linecap:butt;stroke-linejoin:miter;stroke-miterlimit:4;stroke-dasharray:none;stroke-opacity:1"
     d="m 360.59839,444.52253 c 0.87,-0.91 1.75,-1.81 2.63,-2.71 1.01,1.09 2.01,2.18 3,3.31 -1.91,0.35 -3.81,-0.07 -5.63,-0.6 z"
     id="path144"
     inkscape:export-xdpi="90"
     inkscape:export-ydpi="90" />
  <path
     inkscape:connector-curvature="0"
     style="fill:#737271;stroke:#000000;stroke-width:0.08;stroke-linecap:butt;stroke-linejoin:miter;stroke-miterlimit:4;stroke-dasharray:none;stroke-opacity:1"
     d="m 358.63839,454.91253 c -3.02,-0.89 -5.99,-5.28 -2.51,-7.55 0.44,1.48 0.87,2.99 1.3,4.49 1.86,0.34 3.72,0.69 5.58,1.09 -1.32,0.9 -2.57,2.44 -4.37,1.97 z"
     id="path146"
     inkscape:export-xdpi="90"
     inkscape:export-ydpi="90" />
  <path
     inkscape:connector-curvature="0"
     style="fill:#acacab;stroke:#000000;stroke-width:0.08;stroke-linecap:butt;stroke-linejoin:miter;stroke-miterlimit:4;stroke-dasharray:none;stroke-opacity:1"
     d="m 378.10839,447.49253 c 0.39,3 0.56,6.03 0.78,9.05 -2.98,1.95 -6,3.88 -9.28,5.31 3.13,-4.6 6.56,-9.08 8.5,-14.36 z"
     id="path148"
     inkscape:export-xdpi="90"
     inkscape:export-ydpi="90" />
  <path
     inkscape:connector-curvature="0"
     style="fill:#444444;stroke:#000000;stroke-width:0.08;stroke-linecap:butt;stroke-linejoin:miter;stroke-miterlimit:4;stroke-dasharray:none;stroke-opacity:1"
     d="m 229.62839,468.66253 c 13.36,-5.51 27.6,-8.73 41.97,-10.12 7.52,-0.39 14.95,1.23 22.31,2.55 4.43,0.74 8.64,2.4 12.59,4.52 4.91,2.66 10.81,1.05 15.92,3.11 6.26,2.37 12.21,5.63 18.82,7 4.13,0.79 8.07,2.33 11.52,4.76 -6.52,-0.19 -12.38,-3.51 -18.8,-4.32 -11.65,-1.69 -22.85,-5.44 -34.43,-7.48 -12.23,-2.38 -24.86,-2.96 -37.23,-1.28 -14.07,1.67 -27.5,6.53 -41.5,8.56 -4.19,0.82 -8.32,1.94 -12.55,2.48 6.66,-4.23 14.28,-6.45 21.38,-9.78 z"
     id="path150"
     inkscape:export-xdpi="90"
     inkscape:export-ydpi="90" />
</svg>
