<?xml version="1.0" standalone="no"?>
<!DOCTYPE svg PUBLIC "-//W3C//DTD SVG 20010904//EN"
 "http://www.w3.org/TR/2001/REC-SVG-20010904/DTD/svg10.dtd">
<svg version="1.0" xmlns="http://www.w3.org/2000/svg"
 width="450.000000pt" height="450.000000pt" viewBox="0 0 450.000000 450.000000"
 preserveAspectRatio="xMidYMid meet">
<metadata>
Created by potrace 1.11, written by Peter Selinger 2001-2013
</metadata>
<g transform="translate(0.000000,450.000000) scale(0.100000,-0.100000)"
fill="#000000" stroke="none">
<path d="M2088 4375 c-2 -1 -32 -6 -68 -9 -118 -12 -378 -83 -455 -124 -16 -9
-50 -16 -75 -17 -58 -1 -155 -49 -173 -86 -7 -15 -42 -49 -77 -75 -89 -66
-243 -224 -312 -320 -60 -85 -150 -243 -168 -298 -6 -19 -23 -47 -38 -63 -38
-41 -61 -116 -55 -177 4 -28 6 -62 5 -76 -1 -14 -4 -94 -8 -178 l-7 -153 36 6
35 7 8 -49 c8 -55 19 -73 45 -73 25 0 24 -17 -1 -25 -35 -11 -70 -63 -70 -106
0 -22 -4 -47 -10 -57 -27 -50 -83 -180 -85 -197 -1 -11 5 -33 13 -49 27 -55
-3 -236 -40 -236 -4 0 -5 -20 -1 -45 7 -52 -5 -87 -79 -245 -50 -107 -88 -207
-88 -235 0 -8 -4 -15 -9 -15 -24 0 -45 -94 -45 -204 -2 -222 15 -309 84 -431
15 -27 56 -99 90 -160 34 -60 77 -138 96 -173 87 -163 188 -285 269 -324 126
-62 310 -67 429 -14 17 8 45 17 61 20 17 4 41 9 55 11 14 3 39 8 55 11 25 4
133 26 195 39 8 2 65 15 125 30 180 43 264 52 423 50 81 -2 158 -6 172 -9 14
-3 43 -8 65 -11 21 -3 55 -9 75 -15 19 -5 49 -11 65 -14 17 -3 75 -17 130 -30
55 -13 118 -27 140 -31 22 -4 49 -9 60 -10 11 -2 36 -9 55 -15 19 -6 44 -13
55 -15 11 -3 56 -14 100 -26 81 -22 169 -30 237 -22 21 3 36 8 34 12 -2 3 11
7 29 8 39 2 138 51 182 91 41 37 175 227 219 312 19 36 75 132 124 214 116
193 129 232 132 411 2 77 0 167 -5 200 -8 62 -31 110 -48 100 -5 -4 -9 -3 -8
2 4 15 -13 88 -27 120 -8 17 -14 33 -14 36 0 3 -21 50 -46 104 -70 149 -73
159 -77 184 -2 13 -1 36 4 52 6 22 3 32 -16 51 -16 16 -25 40 -31 82 -11 93
-11 97 3 133 19 49 16 76 -12 121 -37 59 -57 126 -61 204 -2 38 -5 71 -7 73
-3 2 -16 -1 -30 -6 -22 -8 -28 -6 -41 14 -15 23 -15 24 7 23 53 -2 55 0 47 37
-4 20 -7 44 -5 53 2 9 4 20 4 25 1 4 10 7 20 7 28 0 34 38 37 245 1 99 2 196
3 215 1 53 -16 94 -49 119 -17 12 -30 26 -30 32 0 15 -85 185 -123 244 -59 94
-178 234 -265 312 -48 43 -116 108 -152 144 -73 74 -112 98 -173 105 -23 3
-100 25 -172 50 -127 44 -209 68 -270 78 -16 3 -41 8 -55 11 -66 13 -118 17
-272 20 -91 2 -168 2 -170 0z"/>
</g>
</svg>
