<?xml version="1.0" standalone="no"?>
<!DOCTYPE svg PUBLIC "-//W3C//DTD SVG 20010904//EN"
 "http://www.w3.org/TR/2001/REC-SVG-20010904/DTD/svg10.dtd">
<svg version="1.0" xmlns="http://www.w3.org/2000/svg"
 width="700.000000pt" height="700.000000pt" viewBox="0 0 700.000000 700.000000"
 preserveAspectRatio="xMidYMid meet">
<metadata>
Created by potrace 1.11, written by Peter Selinger 2001-2013
</metadata>
<g transform="translate(0.000000,700.000000) scale(0.100000,-0.100000)"
fill="#000000" stroke="none">
<path d="M3100 5327 c-3 -3 -32 -7 -65 -11 -103 -11 -300 -64 -430 -116 -16
-7 -49 -13 -73 -15 -23 -1 -48 -7 -55 -13 -6 -6 -15 -10 -20 -11 -21 -1 -68
-38 -73 -57 -3 -12 -31 -39 -61 -60 -160 -110 -354 -350 -443 -548 -17 -38
-44 -86 -60 -106 -30 -38 -52 -114 -44 -154 6 -30 6 -52 -1 -228 l-6 -158 27
10 c29 11 42 2 45 -30 1 -8 2 -19 4 -25 1 -5 3 -18 3 -27 1 -10 14 -21 28 -24
l25 -7 -40 -36 c-33 -30 -41 -44 -46 -86 -3 -27 -26 -90 -49 -139 -43 -90 -43
-90 -29 -134 21 -61 13 -164 -16 -203 -16 -22 -21 -40 -18 -67 5 -45 -6 -75
-78 -232 -31 -67 -63 -148 -71 -179 -8 -30 -19 -58 -25 -62 -5 -3 -16 -26 -23
-50 -18 -60 -12 -310 9 -397 6 -26 71 -162 96 -202 24 -38 97 -168 134 -237
65 -120 142 -224 200 -270 112 -89 315 -111 450 -49 17 8 46 17 65 20 79 13
248 48 368 76 295 70 485 72 762 10 25 -6 54 -12 65 -14 11 -2 49 -11 85 -19
36 -9 81 -19 100 -22 19 -3 81 -17 138 -31 57 -14 111 -27 120 -29 9 -2 37
-10 62 -18 42 -13 139 -15 185 -4 157 38 215 79 315 223 52 75 78 115 101 159
15 28 63 110 107 184 45 74 93 164 108 200 24 61 26 78 27 216 1 209 -3 236
-41 278 -9 10 -23 46 -33 80 -9 34 -42 118 -73 187 -59 127 -72 175 -56 195 6
7 0 24 -17 48 -23 33 -27 48 -27 115 0 42 4 94 8 114 7 32 4 46 -27 105 -39
77 -48 109 -49 187 -1 30 -5 53 -9 50 -5 -3 -21 -6 -37 -8 -22 -3 -28 0 -29
15 -1 15 5 19 28 19 30 0 30 0 23 48 -5 39 -3 51 12 62 9 8 19 14 22 12 11 -5
14 35 18 198 2 91 5 181 7 200 5 55 -12 102 -49 139 -19 18 -34 39 -34 45 0
15 -74 156 -118 226 -74 116 -185 237 -333 363 -31 26 -61 58 -68 71 -16 29
-101 73 -158 80 -23 3 -101 25 -175 50 -118 40 -188 59 -308 81 -41 7 -374 18
-380 12z"/>
</g>
</svg>
